<svg id="Analyze_Data" data-name="Analyze Data" xmlns="http://www.w3.org/2000/svg" xmlns:xlink="http://www.w3.org/1999/xlink" width="654.461" height="325.641" viewBox="0 0 654.461 325.641">
  <defs>
    <clipPath id="clip-path">
      <rect id="Rectangle_481" data-name="Rectangle 481" width="654.461" height="325.641" fill="none"/>
    </clipPath>
    <clipPath id="clip-path-3">
      <rect id="Rectangle_479" data-name="Rectangle 479" width="230.679" height="93.861" fill="none"/>
    </clipPath>
  </defs>
  <g id="Group_592" data-name="Group 592" clip-path="url(#clip-path)">
    <g id="Group_591" data-name="Group 591">
      <g id="Group_590" data-name="Group 590" clip-path="url(#clip-path)">
        <path id="Path_3064" data-name="Path 3064" d="M415.836,120.893A119.6,119.6,0,1,1,296.24,1.3a119.6,119.6,0,0,1,119.6,119.6" transform="translate(14.424 0.106)" fill="#fff"/>
        <circle id="Ellipse_1039" data-name="Ellipse 1039" cx="119.596" cy="119.596" r="119.596" transform="translate(191.068 1.403)" fill="none" stroke="#00647b" stroke-linecap="round" stroke-linejoin="round" stroke-width="2.594"/>
        <path id="Path_3065" data-name="Path 3065" d="M240.192,99.893l-10.03-2.732c1.772-5.066,3.449-10.067,6.381-14.514l8.73,4.988a52.278,52.278,0,0,0-5.081,12.258" transform="translate(18.794 6.749)" fill="#cbf3d0"/>
        <path id="Path_3066" data-name="Path 3066" d="M275.257,64.909a67.859,67.859,0,0,0-11.415,4.58c-.221.115-.373.359-.672.658-1.737-2.985-3.456-5.936-5.176-8.89,2.614-1.9,11.74-5.713,14.7-5.978.84,3.155,1.684,6.32,2.567,9.631" transform="translate(21.067 4.514)" fill="#cbf3d0"/>
        <path id="Path_3067" data-name="Path 3067" d="M249.777,102.278l-9.445-2.541c-.251-.526.08-1.1.252-1.765.884-3.422,2.561-6.5,4.025-9.666a4.058,4.058,0,0,1,.507-.665l8.81,5.121c-.384.84-.785,1.776-1.234,2.688a17.458,17.458,0,0,0-1.461,2.9c-.27,1-1.072,1.82-.912,2.967.039.279-.337.617-.542.958" transform="translate(19.617 7.156)" fill="#cbf3d0"/>
        <path id="Path_3068" data-name="Path 3068" d="M263.063,69.862a55.014,55.014,0,0,1,11.959-4.935c.9,3.277,1.8,6.514,2.7,9.806a47.619,47.619,0,0,0-9.547,3.982c-1.7-2.949-3.415-5.908-5.116-8.853" transform="translate(21.48 5.302)" fill="#cbf3d0"/>
        <path id="Path_3069" data-name="Path 3069" d="M254.016,92.968l-8.718-5c0-.13-.076-.37.011-.505a51.012,51.012,0,0,1,7.489-9.7c2.411,2.411,4.821,4.822,7.2,7.2-2.041,2.488-4.4,4.9-5.982,8" transform="translate(20.027 6.35)" fill="#cbf3d0"/>
        <path id="Path_3070" data-name="Path 3070" d="M262.587,97.814a13.148,13.148,0,0,1-.612,1.6,17.762,17.762,0,0,0-1.831,4.323c-.164.716-.676,1.061-1.248.816-2.019-.866-4.271-.888-6.28-1.816a13.052,13.052,0,0,0-2.637-.592,18.166,18.166,0,0,1,1.593-4.748c.642-1.552,1.391-3.06,2.148-4.707l8.867,5.125" transform="translate(20.412 7.569)" fill="#cbf3d0"/>
        <path id="Path_3071" data-name="Path 3071" d="M280.346,84.82c-2.072.115-4.276,1.295-7.013,2.8-.856-1.487-1.763-2.949-2.554-4.472-.8-1.548-1.983-2.911-2.426-4.534,1.264-1.148,2.8-1.457,4.13-2.168a26.64,26.64,0,0,1,4.088-1.423c.225-.076.526-.3.65-.221a1.19,1.19,0,0,1,.569.712c.291,2.876,1.686,5.486,1.992,8.357.029.268.3.512.565.95" transform="translate(21.912 6.107)" fill="#cbf3d0"/>
        <path id="Path_3072" data-name="Path 3072" d="M259.954,84.813l7.2,7.2-4.5,5.82-8.7-5.035a17.671,17.671,0,0,1,2.589-4.016c1.061-1.343,2.228-2.6,3.408-3.972" transform="translate(20.737 6.925)" fill="#cbf3d0"/>
        <path id="Path_3073" data-name="Path 3073" d="M259.577,104.766c-.228,2.34-1.282,4.61-.752,7.048-3.567-.437-7.059-.05-10.482-.235.076-1.142.114-2.246.231-3.34a18.649,18.649,0,0,1,.7-3.8,4.241,4.241,0,0,0,.074-.945c.092-1.1.57-1.508,1.61-1.248.755.188,1.465.551,2.216.758a42.174,42.174,0,0,0,4.586,1.136,10.721,10.721,0,0,1,1.817.625" transform="translate(20.279 8.343)" fill="#cbf3d0"/>
        <path id="Path_3074" data-name="Path 3074" d="M286.809,73.353V83.33c0,.746-5.437.956-6.186,1.144a.579.579,0,0,1-.784-.436c-.155-2.282-1.268-4.323-1.617-6.557a25.848,25.848,0,0,0-.78-2.859c3.057-.534,6.038-1.511,9.367-1.27" transform="translate(22.655 5.987)" fill="#cbf3d0"/>
        <path id="Path_3075" data-name="Path 3075" d="M267.433,91.6l5.533-4.3,8.046,13.915-2.359,1.605c-3.667-3.666-7.361-7.361-11.22-11.22" transform="translate(21.837 7.129)" fill="#cbf3d0"/>
        <path id="Path_3076" data-name="Path 3076" d="M262.658,97.871l13.625,7.925c-.367.81-.627,1.487-.975,2.118a.911.911,0,0,1-1.131.52c-2.032-.823-4.23-1.034-6.293-1.775-1.651-.593-3.4-.9-5.108-1.342-.994-.261-1.979-.549-2.97-.825a22.862,22.862,0,0,1,2.852-6.621" transform="translate(21.215 7.992)" fill="#cbf3d0"/>
        <path id="Path_3077" data-name="Path 3077" d="M273.246,87.381a41.783,41.783,0,0,1,6.658-2.847c1.388,5.182,2.755,10.287,4.129,15.418l-2.847,1.1-7.939-13.674" transform="translate(22.312 6.903)" fill="#cbf3d0"/>
        <path id="Path_3078" data-name="Path 3078" d="M278.124,103.359q-.808,1.029-1.7,2.165c-2.8-1.627-5.509-3.095-8.141-4.721a49.042,49.042,0,0,0-4.419-2.461c-1.113-.536-1.111-.758-.395-1.825A20.573,20.573,0,0,1,267,92.233Z" transform="translate(21.473 7.531)" fill="#cbf3d0"/>
        <path id="Path_3079" data-name="Path 3079" d="M258.781,111.343c-.531-2.292.432-4.347.795-6.651l15.217,4.054c-.149.891-.288,1.723-.433,2.6Z" transform="translate(21.118 8.549)" fill="#cbf3d0"/>
        <path id="Path_3080" data-name="Path 3080" d="M280.093,84.592c.884-.618,2.055-.5,3.105-.74a22.133,22.133,0,0,1,3.364-.267V99.319l-2.141.478a2.626,2.626,0,0,1-.517-.783,34.317,34.317,0,0,0-.833-3.551c-.518-1.373-.71-2.812-1.126-4.2-.64-2.135-1.2-4.3-1.853-6.669" transform="translate(22.871 6.825)" fill="#cbf3d0"/>
        <path id="Path_3081" data-name="Path 3081" d="M311.844,69.793l5.144-8.905c4.9,2.48,8.827,5.985,12.694,9.262-2.512,2.511-4.968,4.968-7.437,7.437a14.266,14.266,0,0,0-2.231-1.923c-.607-.356-8.028-6.117-8.17-5.871" transform="translate(25.464 4.972)" fill="#73df81"/>
        <path id="Path_3082" data-name="Path 3082" d="M347.459,112.4H336.847c0-.631.03-1.208-.006-1.78a31.833,31.833,0,0,0-.456-5.483c-.34-1.4-.3-2.916-1.067-4.238-.226-.389-.035-1.02-.035-1.657l9.71-2.684c1.633,5.033,1.983,10.391,2.466,15.842" transform="translate(27.371 7.885)" fill="#73df81"/>
        <path id="Path_3083" data-name="Path 3083" d="M288.346,63.249V53.086a32.1,32.1,0,0,1,4.693.047c1.91.286,3.841.424,5.733.772a17.536,17.536,0,0,0,3.787.761c.315-.011.634.72.484,1.059a28.67,28.67,0,0,0-1.441,5.262c-.249,1.069-.884,2.024-.827,3.19.021.425-.827.807-1.429.613a11.493,11.493,0,0,1-1.953-.436c-1.945-1.194-5.17-.808-7.371-1.09a13.882,13.882,0,0,0-1.674-.015" transform="translate(23.545 4.329)" fill="#73df81"/>
        <path id="Path_3084" data-name="Path 3084" d="M321.172,92.627l9.167-5.3c1.009,2.052,2.036,4.017,2.949,6.035a22.482,22.482,0,0,1,1.984,5.6c.713.492-.107.94-.2.919a3.639,3.639,0,0,0-2.332.532,15.969,15.969,0,0,1-2.282.6c-1.245.416-2.542.78-3.832,1.109-.975.248-1.289.187-1.513-.754a42.908,42.908,0,0,0-2.182-5.72,22.653,22.653,0,0,0-1.756-3.025" transform="translate(26.225 7.131)" fill="#73df81"/>
        <path id="Path_3085" data-name="Path 3085" d="M322.338,77.307l-7.429,7.429a32.232,32.232,0,0,0-8.165-6.077c1.764-3.044,3.5-6.036,5.289-9.122,1.328.842,2.543,1.542,3.683,2.35,1.221.864,2.319,1.91,3.568,2.727a23.715,23.715,0,0,1,3.054,2.692" transform="translate(25.047 5.678)" fill="#73df81"/>
        <path id="Path_3086" data-name="Path 3086" d="M337.231,112.182h-10.52a5.959,5.959,0,0,0-.005-.792c-.14-.988.2-1.968-.326-3-.4-.773-.111-1.805-.366-2.761-.278-1.045-.454-2.155-.7-3.234-.043-.189.229-.64.386-.655a36.617,36.617,0,0,0,4.769-1.247c1.241-.288,2.468-.633,3.688-1,1.313-.394,1.4.348,1.5,1.4a50.881,50.881,0,0,0,1.01,5.109c.2,1.009.174,2.016.335,3.029a11.494,11.494,0,0,1,.229,3.142" transform="translate(26.563 8.116)" fill="#73df81"/>
        <path id="Path_3087" data-name="Path 3087" d="M300.289,64.769c-.918,3.418-1.8,6.684-2.687,9.994.017-.247-7.3-.992-8.119-1.012-.842-.022-1.161-.305-1.177-1.1-.025-1.3-.006-2.595-.006-3.893V63.219a39.976,39.976,0,0,1,11.989,1.55" transform="translate(23.541 5.16)" fill="#73df81"/>
        <path id="Path_3088" data-name="Path 3088" d="M325.59,102.067c-3.552,1.009-6.82,1.935-10.178,2.7-.509-2.613-1.884-4.633-2.971-6.977,1.407-.966,3.023-1.652,4.447-2.62s3.062-1.527,4.488-2.759a39.629,39.629,0,0,1,4.215,9.652" transform="translate(25.512 7.546)" fill="#73df81"/>
        <path id="Path_3089" data-name="Path 3089" d="M312.377,97.961a19.983,19.983,0,0,0-4.564-5.794,2.668,2.668,0,0,1,0-.3.315.315,0,0,1,.057-.17c2.388-2.395,4.78-4.786,7.143-7.151a31.413,31.413,0,0,1,6.505,8.131l-9.144,5.285" transform="translate(25.134 6.904)" fill="#73df81"/>
        <path id="Path_3090" data-name="Path 3090" d="M306.914,78.374a39.614,39.614,0,0,1,8.047,6.011,3.025,3.025,0,0,1,0,.326.318.318,0,0,1-.056.17c-2.388,2.395-4.781,4.786-7.1,7.109-1.041-.861-2.032-1.756-3.1-2.547-.966-.717-2.014-1.323-3.045-1.99l5.259-9.077" transform="translate(24.632 6.4)" fill="#73df81"/>
        <path id="Path_3091" data-name="Path 3091" d="M316.659,111.967a34.6,34.6,0,0,0-1.293-7.277c1.443-.422,2.879-.863,4.328-1.259,1.864-.509,3.738-.983,5.694-1.5.277-.072.57.774.607.944.091.41.043.824.135,1.229a45.223,45.223,0,0,1,.618,4.685c.124,1.035.306,2.063.475,3.175Z" transform="translate(25.751 8.323)" fill="#73df81"/>
        <path id="Path_3092" data-name="Path 3092" d="M313,97.53a32.935,32.935,0,0,1,2.961,6.857,24.452,24.452,0,0,1-4.978,1.475c-1.757.453-3.491,1.008-5.256,1.445-1.717.426-3.422.893-5.122,1.339l-1.513-2.993a51.869,51.869,0,0,1,4.772-2.821c2.1-.968,3.9-2.442,6.019-3.377A25.373,25.373,0,0,0,313,97.53" transform="translate(24.422 7.964)" fill="#73df81"/>
        <path id="Path_3093" data-name="Path 3093" d="M308.308,91.934a18.364,18.364,0,0,1,4.422,5.815,27.874,27.874,0,0,0-4.123,2.239c-1.128.879-2.449,1.364-3.606,2.181-1.514,1.069-3.269,1.815-4.843,2.84a5.129,5.129,0,0,1-1.19.45l-1.953-2.231,11.294-11.294" transform="translate(24.253 7.507)" fill="#73df81"/>
        <path id="Path_3094" data-name="Path 3094" d="M294,101.12c2.652-4.579,5.319-9.18,7.974-13.765a18.752,18.752,0,0,1,5.793,4.21c0,.065,0,.131,0,.195s0,.144-.032.178q-5.5,5.51-11,11.011L294,101.12" transform="translate(24.007 7.133)" fill="#73df81"/>
        <path id="Path_3095" data-name="Path 3095" d="M290.776,99.989l4.135-15.542a45.7,45.7,0,0,1,6.982,2.617c-.837,1.467-1.637,2.886-2.455,4.294-.64,1.1-1.326,2.174-1.955,3.281-1.1,1.942-2.161,3.91-3.28,5.843-.209.36-.488.64-1.088.266a10.158,10.158,0,0,0-2.34-.758" transform="translate(23.743 6.896)" fill="#73df81"/>
        <path id="Path_3096" data-name="Path 3096" d="M316.967,111.781H301.126c-.187-.985-.37-1.948-.57-3,5.121-1.546,10.3-2.784,15.4-4.227a16.675,16.675,0,0,1,1.01,7.231" transform="translate(24.542 8.537)" fill="#73df81"/>
        <path id="Path_3097" data-name="Path 3097" d="M294.748,84.729a17.842,17.842,0,0,0-6.392-.831V73.326a8.8,8.8,0,0,1,2.965.068c1.063.4,2.171.018,3.125.459.906.419,2.013.03,2.931.936l-2.629,9.941" transform="translate(23.546 5.979)" fill="#73df81"/>
        <path id="Path_3098" data-name="Path 3098" d="M290.413,99.92l-2.043-.573V83.452c2.088-.135,4.039.608,6.239.856-1.385,5.154-2.763,10.281-4.2,15.613" transform="translate(23.547 6.813)" fill="#73df81"/>
        <path id="Path_3099" data-name="Path 3099" d="M264.084,156.133l-5.144,8.905c-4.9-2.48-8.827-5.985-12.694-9.262,2.512-2.511,4.968-4.968,7.437-7.437a14.271,14.271,0,0,0,2.231,1.923c.607.356,8.028,6.117,8.17,5.871" transform="translate(20.107 12.113)" fill="#a0e9a9"/>
        <path id="Path_3100" data-name="Path 3100" d="M228.046,113.456h10.612c0,.631-.03,1.208.006,1.78a31.825,31.825,0,0,0,.456,5.483c.34,1.4.3,2.916,1.067,4.238.226.389.035,1.02.035,1.657l-9.71,2.684c-1.633-5.033-1.983-10.391-2.466-15.842" transform="translate(18.621 9.264)" fill="#a0e9a9"/>
        <path id="Path_3101" data-name="Path 3101" d="M287.347,162.309v10.163a32.1,32.1,0,0,1-4.693-.047c-1.91-.286-3.841-.424-5.733-.772a17.536,17.536,0,0,0-3.787-.762c-.315.011-.634-.72-.484-1.059a28.677,28.677,0,0,0,1.441-5.262c.249-1.069.884-2.024.827-3.19-.021-.425.827-.807,1.429-.613a11.493,11.493,0,0,1,1.953.436c1.945,1.194,5.17.808,7.371,1.09a13.888,13.888,0,0,0,1.674.015" transform="translate(22.26 13.123)" fill="#a0e9a9"/>
        <path id="Path_3102" data-name="Path 3102" d="M254.5,133.164l-9.167,5.3c-1.009-2.052-2.036-4.017-2.949-6.035a22.483,22.483,0,0,1-1.984-5.6c-.713-.492.107-.94.2-.919a3.639,3.639,0,0,0,2.332-.532,15.817,15.817,0,0,1,2.282-.6c1.245-.418,2.542-.781,3.832-1.11.975-.248,1.289-.187,1.513.754a42.9,42.9,0,0,0,2.182,5.72,22.651,22.651,0,0,0,1.756,3.025" transform="translate(19.606 10.088)" fill="#a0e9a9"/>
        <path id="Path_3103" data-name="Path 3103" d="M253.419,148.506l7.429-7.429a32.234,32.234,0,0,0,8.165,6.077c-1.764,3.044-3.5,6.036-5.289,9.122-1.328-.842-2.543-1.542-3.683-2.35-1.221-.864-2.319-1.91-3.568-2.727a23.719,23.719,0,0,1-3.053-2.692" transform="translate(20.693 11.52)" fill="#a0e9a9"/>
        <path id="Path_3104" data-name="Path 3104" d="M238.253,113.45h10.52a5.964,5.964,0,0,0,.005.792c.14.988-.2,1.968.326,3,.4.773.111,1.805.366,2.761.278,1.045.454,2.155.7,3.234.043.189-.229.64-.386.655a36.612,36.612,0,0,0-4.769,1.247c-1.241.288-2.468.633-3.688,1-1.313.394-1.4-.348-1.5-1.4a50.873,50.873,0,0,0-1.01-5.109c-.2-1.009-.174-2.016-.335-3.029a11.5,11.5,0,0,1-.229-3.142" transform="translate(19.451 9.264)" fill="#a0e9a9"/>
        <path id="Path_3105" data-name="Path 3105" d="M275.2,160.769c.918-3.418,1.8-6.684,2.687-9.994-.017.247,7.3.992,8.119,1.012.841.022,1.161.305,1.177,1.1.025,1.3.007,2.595.007,3.893v5.535a39.976,39.976,0,0,1-11.989-1.55" transform="translate(22.471 12.312)" fill="#a0e9a9"/>
        <path id="Path_3106" data-name="Path 3106" d="M249.983,123.531c3.552-1.009,6.82-1.935,10.178-2.7.509,2.613,1.884,4.633,2.971,6.977-1.407.966-3.023,1.652-4.447,2.62s-3.062,1.527-4.488,2.759a39.627,39.627,0,0,1-4.215-9.652" transform="translate(20.412 9.866)" fill="#a0e9a9"/>
        <path id="Path_3107" data-name="Path 3107" d="M263.238,127.718a19.983,19.983,0,0,0,4.564,5.794,2.661,2.661,0,0,1,0,.3.315.315,0,0,1-.057.17c-2.388,2.395-4.78,4.786-7.143,7.151A31.412,31.412,0,0,1,254.094,133l9.144-5.285" transform="translate(20.748 10.429)" fill="#a0e9a9"/>
        <path id="Path_3108" data-name="Path 3108" d="M268.672,147.32a39.616,39.616,0,0,1-8.047-6.011,3.024,3.024,0,0,1,0-.326.318.318,0,0,1,.056-.17c2.388-2.395,4.781-4.786,7.1-7.109,1.041.861,2.032,1.756,3.1,2.547.966.717,2.014,1.323,3.045,1.99l-5.259,9.077" transform="translate(21.281 10.918)" fill="#a0e9a9"/>
        <path id="Path_3109" data-name="Path 3109" d="M258.817,113.457a34.6,34.6,0,0,0,1.293,7.277c-1.443.422-2.879.863-4.328,1.259-1.864.509-3.738.983-5.694,1.5-.277.072-.57-.774-.607-.944-.091-.41-.043-.824-.135-1.229a45.215,45.215,0,0,1-.618-4.685c-.124-1.035-.306-2.063-.475-3.175Z" transform="translate(20.271 9.264)" fill="#a0e9a9"/>
        <path id="Path_3110" data-name="Path 3110" d="M262.857,127.975a32.939,32.939,0,0,1-2.962-6.857,24.451,24.451,0,0,1,4.978-1.475c1.757-.453,3.491-1.008,5.257-1.445,1.715-.426,3.421-.893,5.121-1.339l1.513,2.993a51.865,51.865,0,0,1-4.772,2.821c-2.1.968-3.9,2.442-6.019,3.377a25.28,25.28,0,0,0-3.115,1.925" transform="translate(21.222 9.542)" fill="#a0e9a9"/>
        <path id="Path_3111" data-name="Path 3111" d="M267.46,133.753a18.365,18.365,0,0,1-4.422-5.815,27.873,27.873,0,0,0,4.123-2.239c1.128-.879,2.449-1.364,3.606-2.181,1.514-1.069,3.269-1.815,4.843-2.84a5.129,5.129,0,0,1,1.19-.45l1.953,2.231L267.46,133.753" transform="translate(21.478 9.817)" fill="#a0e9a9"/>
        <path id="Path_3112" data-name="Path 3112" d="M281.619,124.722c-2.652,4.579-5.319,9.18-7.974,13.765a18.751,18.751,0,0,1-5.793-4.21c0-.065,0-.131,0-.195s0-.144.032-.178q5.5-5.51,11-11.011l2.729,1.829" transform="translate(21.871 10.035)" fill="#a0e9a9"/>
        <path id="Path_3113" data-name="Path 3113" d="M284.644,125.92c-1.365,5.13-2.732,10.266-4.135,15.542a45.7,45.7,0,0,1-6.982-2.617c.837-1.467,1.637-2.886,2.455-4.294.64-1.1,1.326-2.174,1.955-3.281,1.1-1.942,2.161-3.91,3.28-5.843.209-.36.488-.64,1.088-.266a10.159,10.159,0,0,0,2.34.758" transform="translate(22.335 10.206)" fill="#a0e9a9"/>
        <path id="Path_3114" data-name="Path 3114" d="M258.856,113.43H274.7c.187.985.37,1.948.57,3-5.121,1.546-10.3,2.784-15.4,4.227a16.675,16.675,0,0,1-1.01-7.231" transform="translate(21.133 9.262)" fill="#a0e9a9"/>
        <path id="Path_3115" data-name="Path 3115" d="M280.513,140.8a17.842,17.842,0,0,0,6.392.831v10.573a8.8,8.8,0,0,1-2.965-.068c-1.063-.4-2.171-.018-3.125-.459-.906-.419-2.013-.03-2.931-.936l2.629-9.941" transform="translate(22.691 11.497)" fill="#a0e9a9"/>
        <path id="Path_3116" data-name="Path 3116" d="M284.639,125.989l2.043.573v15.895c-2.088.135-4.039-.608-6.239-.856,1.385-5.154,2.763-10.281,4.2-15.613" transform="translate(22.9 10.288)" fill="#a0e9a9"/>
        <path id="Path_3117" data-name="Path 3117" d="M347,113.482h10.555a69.14,69.14,0,0,1-2.743,19.011c-1.312-.394-2.46-.753-3.616-1.084-1.859-.531-3.724-1.041-5.585-1.568-.812-.23-.787-.235-.57-1.174.455-1.968.94-3.922,1.233-5.934.222-1.514.482-3.043.681-4.56a36.552,36.552,0,0,0,.044-4.691" transform="translate(28.164 9.266)" fill="#96e7a0"/>
        <path id="Path_3118" data-name="Path 3118" d="M347.463,113.43c-.124.676-.011,1.343-.081,2.026q-.128,1.257-.258,2.517c-.123,1.2-.245,2.4-.415,3.589q-.174,1.218-.411,2.426c-.142.719-.4,1.444-.485,2.169a27.378,27.378,0,0,1-.783,3.3c-3.413-.98-6.671-1.913-9.954-2.856.45-2.009,1.047-4.09,1.355-6.214.328-2.253.383-4.547.568-6.959h10.464Z" transform="translate(27.361 9.262)" fill="#96e7a0"/>
        <path id="Path_3119" data-name="Path 3119" d="M303.425,181c-.794-3.37-1.574-6.679-2.375-10.083,4.119-1.346,8.465-2.416,12.481-4.567l4.49,9.484a71.192,71.192,0,0,1-14.6,5.166" transform="translate(24.582 13.583)" fill="#96e7a0"/>
        <path id="Path_3120" data-name="Path 3120" d="M323.976,160.385l9.416-9.017a3.379,3.379,0,0,1,1.138.519c2.043,2.195,4.648,3.746,6.72,5.9-1.77,2.633-4.189,4.664-6.445,6.826-1.462,1.4-3.19,2.485-4.609,3.9l-6.221-8.134" transform="translate(26.454 12.36)" fill="#96e7a0"/>
        <path id="Path_3121" data-name="Path 3121" d="M298.728,160.79c1.906-.284,3.538-1.23,5.286-1.575,1.814-.358,3.236-1.778,5.176-1.722,1.413,3.046,2.8,6.05,4.258,9.192.091.2-5.568,2.158-5.97,2.3-1.3.452-2.6.895-3.9,1.364-1.088.394-2.447,1.065-2.814-.562-.018-.08-.034-.161-.047-.242-.224-1.386-.559-2.755-.886-4.122a14.394,14.394,0,0,1-.681-2.849,9.27,9.27,0,0,0-.424-1.781" transform="translate(24.393 12.86)" fill="#96e7a0"/>
        <path id="Path_3122" data-name="Path 3122" d="M313.213,166.969l-4.466-9.5a63.22,63.22,0,0,0,8.178-4.984c.794-.541,1-.593,1.6.065.751.833,1.415,1.744,2.115,2.622.31.389.628.773.919,1.178.248.345.434.738.7,1.071.651.827,1.329,1.632,2.059,2.522-3.377,2.91-7.258,4.794-11.1,7.027" transform="translate(25.211 12.417)" fill="#96e7a0"/>
        <path id="Path_3123" data-name="Path 3123" d="M317.666,152.184c1.361-1.284,2.638-2.636,4.069-3.8s2.37-2.751,3.855-3.827a53.189,53.189,0,0,0,4.449,3.667c1.014.744,1.732,1.85,2.88,2.475.473.257.392.764.125,1.173a3.823,3.823,0,0,1-.543.557c-.6.6-1.182,1.208-1.8,1.79-2.094,1.986-4.2,3.962-6.436,6.072-2.544-2.439-4.188-5.586-6.6-8.11" transform="translate(25.939 11.804)" fill="#96e7a0"/>
        <path id="Path_3124" data-name="Path 3124" d="M331.546,135.9l8.96,4.781a57.976,57.976,0,0,1-7.331,10.874c-1.9-1.659-3.745-3.274-5.6-4.871-.565-.487-1.192-.9-1.758-1.387a.833.833,0,0,1-.029-1.321,28.437,28.437,0,0,0,4.836-7.153c.185-.384.632-.641.922-.924" transform="translate(26.577 11.097)" fill="#96e7a0"/>
        <path id="Path_3125" data-name="Path 3125" d="M335.227,126.431l-9.935-2.875c.7-3.4,1.627-6.628,1.407-10.079h10.555a15.158,15.158,0,0,1-.207,2.871,22.356,22.356,0,0,0-.363,2.983c-.069.68-.085,1.393-.211,2.065-.117.623-.35,1.224-.416,1.864a21.123,21.123,0,0,1-.83,3.171" transform="translate(26.562 9.266)" fill="#96e7a0"/>
        <path id="Path_3126" data-name="Path 3126" d="M296.452,151.022l7.944-2.807a82.441,82.441,0,0,1,4.39,9.024c-1.326,1.214-3.087,1.641-4.772,2.207-1.714.577-3.439,1.123-5.25,1.711-.785-3.44-1.541-6.756-2.311-10.135" transform="translate(24.207 12.103)" fill="#96e7a0"/>
        <path id="Path_3127" data-name="Path 3127" d="M331.471,136.16l-9.242-4.976c.138-.289.281-.6.434-.9a55.377,55.377,0,0,0,2.778-6.952l9.681,2.71a5.228,5.228,0,0,1-.173,1.519,66.209,66.209,0,0,1-3.478,8.6" transform="translate(26.312 10.071)" fill="#96e7a0"/>
        <path id="Path_3128" data-name="Path 3128" d="M317.888,152.216l-6.369-8.224c1.8-2.084,4.52-3.44,6.075-6.083l8.022,6.819c-1.261,1.261-2.517,2.547-3.807,3.8-1.234,1.2-2.5,2.358-3.92,3.688" transform="translate(25.437 11.261)" fill="#96e7a0"/>
        <path id="Path_3129" data-name="Path 3129" d="M322.39,131.2a96.442,96.442,0,0,1,9.009,4.873,53.554,53.554,0,0,1-5.955,8.721l-7.845-6.653,4.791-6.941" transform="translate(25.934 10.713)" fill="#96e7a0"/>
        <path id="Path_3130" data-name="Path 3130" d="M317.988,152.055a62.946,62.946,0,0,1-9.013,5.4.3.3,0,0,1-.227-.031c-.569-1.208-1.1-2.349-1.642-3.484-.878-1.84-1.765-3.675-2.687-5.593l7.191-4.5,6.379,8.213" transform="translate(24.857 11.745)" fill="#96e7a0"/>
        <path id="Path_3131" data-name="Path 3131" d="M325.444,123.339l-10.057-2.871c.187-.333.373-.522.395-.729.213-2.041.949-4.014.792-6.1a.979.979,0,0,1,.133-.142.314.314,0,0,1,.165-.066q5.052,0,10.094,0a2.531,2.531,0,0,1-.018,2.036,8.241,8.241,0,0,0-.257,2.217,15.029,15.029,0,0,1-.361,2.411c-.206,1.061-.564,2.092-.885,3.244" transform="translate(25.753 9.262)" fill="#96e7a0"/>
        <path id="Path_3132" data-name="Path 3132" d="M300.513,115.932c.177-.794.362-1.622.553-2.472h16.219c-.372,2.277-.318,4.613-1.21,6.874l-15.562-4.4" transform="translate(24.538 9.265)" fill="#96e7a0"/>
        <path id="Path_3133" data-name="Path 3133" d="M322.441,131.176l-9.259-4.93a28.629,28.629,0,0,0,2.018-4.826c.184-.628.832-1.046,1.311-.721a9.421,9.421,0,0,0,2.436.715c1.757.628,3.58,1.067,5.371,1.6,1.122.334,1.2.506.843,1.56a41.5,41.5,0,0,1-2.72,6.6" transform="translate(25.573 9.846)" fill="#96e7a0"/>
        <path id="Path_3134" data-name="Path 3134" d="M305.207,135.539c1.951-1.025,3.084-2.716,4.647-4.067q3.772,3.188,7.63,6.447c-.575,1.794-2.083,2.755-3.26,3.959a24.924,24.924,0,0,1-2.57,2.035c-2.068-2.687-4.21-5.469-6.447-8.373" transform="translate(24.922 10.735)" fill="#96e7a0"/>
        <path id="Path_3135" data-name="Path 3135" d="M300.155,138.87l5.206-3.092,6.2,8.11c-2.049,1.858-4.609,2.918-6.952,4.5a74.945,74.945,0,0,1-4.459-9.514" transform="translate(24.509 11.087)" fill="#96e7a0"/>
        <path id="Path_3136" data-name="Path 3136" d="M322.54,131.239l-4.792,7.044a18.18,18.18,0,0,0-2.714-2.339c-.924-.522-1.462-1.535-2.435-2.111a18.59,18.59,0,0,1-2.685-2.4c.879-1.675,2.343-3.2,3.34-5.116l9.285,4.923" transform="translate(25.306 10.314)" fill="#96e7a0"/>
        <path id="Path_3137" data-name="Path 3137" d="M294.158,140.99l5.9-1.969a35.051,35.051,0,0,0,1.459,3.382,40.8,40.8,0,0,1,2.77,5.863,35.876,35.876,0,0,1-7.755,2.793q-1.132-4.8-2.379-10.069" transform="translate(24.02 11.352)" fill="#96e7a0"/>
        <path id="Path_3138" data-name="Path 3138" d="M294.039,140.731l2.348,10.169c.2.893-8.046.747-8.046,1.457V141.721c.009.054,5.793-.578,5.7-.99" transform="translate(23.545 11.491)" fill="#96e7a0"/>
        <path id="Path_3139" data-name="Path 3139" d="M305.553,136.144c-1.849,1.249-3.357,2.526-5.336,3.167l-6.827-14.493a9.891,9.891,0,0,1,1.153-.866,2.228,2.228,0,0,1,1.193-.359c.225.023.4.515.6.786,2.456,3.209,5.038,6.322,7.335,9.656a21.777,21.777,0,0,0,1.879,2.109" transform="translate(23.957 10.092)" fill="#96e7a0"/>
        <path id="Path_3140" data-name="Path 3140" d="M305.606,135.9c-3.3-4.292-6.513-8.48-9.683-12.61.639-.635,1.224-1.215,1.884-1.871l12.386,10.52c-1.594,1.367-2.672,3.065-4.587,3.961" transform="translate(24.164 9.914)" fill="#96e7a0"/>
        <path id="Path_3141" data-name="Path 3141" d="M298.006,121.223l1.352-2.269,14.372,7.619c-1.1,1.572-1.763,3.547-3.581,4.892l-12.143-10.242" transform="translate(24.334 9.713)" fill="#96e7a0"/>
        <path id="Path_3142" data-name="Path 3142" d="M313.777,126.281l-14.228-7.6c.344-.843.633-1.552.939-2.305.04-.007.175-.078.279-.044,1.963.627,3.995,1.021,5.957,1.621,1.142.349,2.307.786,3.449,1.03a22.183,22.183,0,0,0,3.359.909,9.307,9.307,0,0,1,2.473.91,24.028,24.028,0,0,1-2.227,5.483" transform="translate(24.46 9.498)" fill="#96e7a0"/>
        <path id="Path_3143" data-name="Path 3143" d="M290.9,125.5l2.093-.592c2.334,4.885,4.658,9.746,7.017,14.68-1.622.6-3.072,1.142-4.53,1.666-.959.344-1.483.052-1.511-.929-.045-1.5-.725-2.842-.936-4.3-.137-.956-.542-1.855-.678-2.84-.181-1.314-.637-2.587-.936-3.887-.287-1.251-.859-2.472-.519-3.8" transform="translate(23.745 10.2)" fill="#96e7a0"/>
        <path id="Path_3144" data-name="Path 3144" d="M288.362,126.2l1.686-.608c.784,1.776.887,3.621,1.362,5.364.482,1.768.766,3.589,1.222,5.359a50.376,50.376,0,0,1,1.194,5.406l-5.465.543Z" transform="translate(23.546 10.255)" fill="#96e7a0"/>
        <path id="Path_3145" data-name="Path 3145" d="M288.374,22.141A98.4,98.4,0,0,1,385.4,119.165h15.087A113.5,113.5,0,0,0,288.374,7.055Z" transform="translate(23.547 0.576)" fill="#73df81"/>
        <path id="Path_3146" data-name="Path 3146" d="M197.488,119.166a98.4,98.4,0,0,1,97.024-97.024V7.056A113.5,113.5,0,0,0,182.4,119.166Z" transform="translate(14.894 0.576)" fill="#d8f6dc"/>
        <path id="Path_3147" data-name="Path 3147" d="M385.4,113.027a98.4,98.4,0,0,1-97.024,97.024v15.086a113.5,113.5,0,0,0,112.11-112.11Z" transform="translate(23.547 9.229)" fill="#96e7a0"/>
        <path id="Path_3148" data-name="Path 3148" d="M294.512,210.051a98.4,98.4,0,0,1-97.024-97.024H182.4a113.5,113.5,0,0,0,112.11,112.11Z" transform="translate(14.894 9.229)" fill="#b4eebb"/>
        <path id="Path_3149" data-name="Path 3149" d="M430.444,164.061c-4.285,17.023-32.81,26.339-58.367,19.906s-38.469-26.184-34.184-43.206c2.594-10.306,7.9-28.148,20.631-31.476,8.3-2.169,22.125,7.454,32.208,9.992,25.557,6.435,44,27.761,39.711,44.784" transform="translate(27.525 8.898)" fill="#fff"/>
        <path id="Path_3150" data-name="Path 3150" d="M578.9,314.683l-7.451-38.815c4.025-.19,2.886-.305,4.077-.343,34.965-1.116,49.706-47.764,21.619-91.294-22.157-34.339-46.366-49.42-55.6-54.259-.089-9.244-7.777-17.48-30.207-21.459M335.748,141.139c.287,7.621,3.91,17.722,13.409,26.84,3.9,3.75,11.592,9.555,20.813,16.085m88.836-74.37c-8.437,4-11.933,10.29-13.29,16.533l-37.273-.761L357.65,107.76" transform="translate(27.416 8.799)" fill="none" stroke="#00647b" stroke-linecap="round" stroke-linejoin="round" stroke-width="2.594"/>
        <path id="Path_3151" data-name="Path 3151" d="M457.623,182.2l25.209-.257c13.154-36.423,33.684-52.04,33.684-52.04l-6.545-6.732-1.21-.05.522.6s-27.213,23.5-35.99,32.916c-5.873-6.22-15.576-29.609-15.941-28.916-3.936,7.455-7.377,25.567-1.736,41.992a48.961,48.961,0,0,1,2.008,12.486" transform="translate(36.961 10.054)" fill="#73df81"/>
        <path id="Path_3152" data-name="Path 3152" d="M439.9,140.192c-.165-3.828-1.078-9.623.217-15.586l-20.039-.123c.2,6.873,4.177,27.17,23.736,31.465a39.815,39.815,0,0,1-3.915-15.756" transform="translate(34.302 10.165)" fill="#00647b"/>
        <path id="Path_3153" data-name="Path 3153" d="M546.957,141.036a114.588,114.588,0,0,0-20.335-12.74c.128,13.486-14.574,29.115-24.635,36.8.508.075,1.044.136,1.622.176,12.9.882,43.555-16.431,48.734-19.4-1.653-1.4-3.484-3.066-5.387-4.838" transform="translate(40.99 10.476)" fill="#00647b"/>
        <path id="Path_3154" data-name="Path 3154" d="M533.691,199.814s11.367-17.314,32.127-6.913" transform="translate(43.579 15.48)" fill="none" stroke="#00647b" stroke-linecap="round" stroke-linejoin="round" stroke-width="2.594"/>
        <path id="Path_3155" data-name="Path 3155" d="M533.1,195.048s9.7-15.655,29.624-9.936" transform="translate(43.531 15.013)" fill="none" stroke="#00647b" stroke-linecap="round" stroke-linejoin="round" stroke-width="2.594"/>
        <path id="Path_3156" data-name="Path 3156" d="M448.666,160.979a137.894,137.894,0,0,1,2.726,17.3" transform="translate(36.636 13.145)" fill="none" stroke="#00647b" stroke-linecap="round" stroke-linejoin="round" stroke-width="3.459"/>
        <path id="Path_3157" data-name="Path 3157" d="M496.242,161.979s-3.529,7.346-6.645,16.218" transform="translate(39.978 13.226)" fill="none" stroke="#00647b" stroke-linecap="round" stroke-linejoin="round" stroke-width="3.459"/>
        <path id="Path_3158" data-name="Path 3158" d="M501.109,109.26l1.693,9.993L508.78,126l-.672.432a174.246,174.246,0,0,0-34.9,30.442,69.1,69.1,0,0,1-13.818-25.218" transform="translate(37.512 8.922)" fill="none" stroke="#00647b" stroke-linecap="round" stroke-linejoin="round" stroke-width="2.594"/>
        <path id="Path_3159" data-name="Path 3159" d="M502.258,86.188s11.365.221,9.331,10.393c-1.374,6.869-7.548,6.416-11.412,5.4" transform="translate(40.842 7.038)" fill="none" stroke="#00647b" stroke-linecap="round" stroke-linejoin="round" stroke-width="2.594"/>
        <path id="Path_3160" data-name="Path 3160" d="M448.415,70.951c-1.51,11.521-.908,23.848.227,33.311" transform="translate(36.542 5.794)" fill="none" stroke="#00647b" stroke-linecap="round" stroke-linejoin="round" stroke-width="2.594"/>
        <path id="Path_3161" data-name="Path 3161" d="M448.533,103.11s.839,17.959,8.7,27.257,24.5,6.7,32.3,1.105,9.09-8.257,10.9-14.24S507.767,85.1,507.767,85.1l-7.333,3.333" transform="translate(36.625 6.949)" fill="none" stroke="#00647b" stroke-linecap="round" stroke-linejoin="round" stroke-width="2.594"/>
        <path id="Path_3162" data-name="Path 3162" d="M508.273,96.849s5.34-8.267,7.4-16.855a17.723,17.723,0,0,0-9.291-20.158c-6.256-3.029-10.9-.652-10.9-.652s6.64-11.3-3.323-21.29A18.136,18.136,0,0,0,478.83,32.58a17.479,17.479,0,0,0-15.924,10.641S449.882,19.3,423.182,33.455c-2.694,1.428-5.725,5.41-7.18,8.091-8.819,16.249,20.246,35.5,35.376,37.022,16.614,1.672,26.34-1.081,31.689-5.145-3.979,2.392.5,27.252,25.206,23.426" transform="translate(33.835 2.366)" fill="#00647b"/>
        <path id="Path_3163" data-name="Path 3163" d="M460.162,94.092l-1.8,15.647,5.515-1.412" transform="translate(37.428 7.683)" fill="none" stroke="#00647b" stroke-linecap="round" stroke-linejoin="round" stroke-width="2.594"/>
        <path id="Path_3164" data-name="Path 3164" d="M452.932,94.531c0,1.369.718,2.479,1.6,2.479s1.6-1.11,1.6-2.479-.717-2.479-1.6-2.479-1.6,1.11-1.6,2.479" transform="translate(36.984 7.517)" fill="#00647b"/>
        <path id="Path_3165" data-name="Path 3165" d="M467.2,94.279c0,1.369.718,2.479,1.6,2.479s1.6-1.11,1.6-2.479-.717-2.479-1.6-2.479-1.6,1.11-1.6,2.479" transform="translate(38.149 7.496)" fill="#00647b"/>
        <path id="Path_3166" data-name="Path 3166" d="M475.907,83.7a7.346,7.346,0,0,0-6.956-2.737" transform="translate(38.292 6.604)" fill="none" stroke="#00647b" stroke-linecap="round" stroke-linejoin="round" stroke-width="2.594"/>
        <path id="Path_3167" data-name="Path 3167" d="M455.763,80.728s-4.447-1.154-5.558,2.479" transform="translate(36.762 6.578)" fill="none" stroke="#00647b" stroke-linecap="round" stroke-linejoin="round" stroke-width="2.594"/>
        <path id="Path_3168" data-name="Path 3168" d="M470.245,112.038a18.806,18.806,0,0,1-5.22,3.5s.274,4.777,5.774,3.206c3.409-.975,2.962-3.983,2.128-6.129a1.648,1.648,0,0,0-2.681-.581" transform="translate(37.972 9.111)" fill="#00647b"/>
        <path id="Path_3169" data-name="Path 3169" d="M316.535,112.679c-8.762-3.952-10,.594-7.446,2.846,3.188,2.813,18.441,10.786,18.441,10.786s-12.325-.9-15.474,6.032.149,7.5,4.855,4.437,19.172.917,19.172.917l4.369,4.3s14.968,5.4,19.444-11.211a16.92,16.92,0,0,0-2.711-16.288c-1.731-2.1-7.748-10.929-28.4-16.248,0,0-9.712-1.365-2.509,3.587a41.678,41.678,0,0,0,5.692,3.248" transform="translate(25.143 8.009)" fill="#fff"/>
        <path id="Path_3170" data-name="Path 3170" d="M316.535,112.679c-8.762-3.952-10,.594-7.446,2.846,3.188,2.813,18.441,10.786,18.441,10.786s-12.325-.9-15.474,6.032.149,7.5,4.855,4.437,19.172.917,19.172.917l4.369,4.3s14.968,5.4,19.444-11.211a16.92,16.92,0,0,0-2.711-16.288c-1.731-2.1-7.748-10.929-28.4-16.248,0,0-9.712-1.365-2.509,3.587a41.678,41.678,0,0,0,5.692,3.248" transform="translate(25.143 8.009)" fill="none" stroke="#00647b" stroke-linecap="round" stroke-linejoin="round" stroke-width="2.594"/>
        <path id="Path_3171" data-name="Path 3171" d="M330.061,117.955c-3.068-1.475-15.921-5.518-18.94-9.116s.883-5.763,11.839-.693" transform="translate(25.324 8.587)" fill="#fff"/>
        <path id="Path_3172" data-name="Path 3172" d="M330.061,117.955c-3.068-1.475-15.921-5.518-18.94-9.116s.883-5.763,11.839-.693" transform="translate(25.324 8.587)" fill="none" stroke="#00647b" stroke-linecap="round" stroke-linejoin="round" stroke-width="2.594"/>
        <path id="Path_3173" data-name="Path 3173" d="M334.582,112.82c-.335-.445-21.416-6.682-19.988-9.683,1.169-2.459,4.2-3.168,15.845,1.262l9.342,4.108" transform="translate(25.683 8.262)" fill="#fff"/>
        <path id="Path_3174" data-name="Path 3174" d="M334.582,112.82c-.335-.445-21.416-6.682-19.988-9.683,1.169-2.459,4.2-3.168,15.845,1.262l9.342,4.108" transform="translate(25.683 8.262)" fill="none" stroke="#00647b" stroke-linecap="round" stroke-linejoin="round" stroke-width="2.594"/>
        <path id="Path_3175" data-name="Path 3175" d="M360.787,107.427a14.717,14.717,0,0,0-11.784.247,33.262,33.262,0,0,1,6.1,6.155,16.918,16.918,0,0,1,2.71,16.288c-4.476,16.615-19.444,11.212-19.444,11.212l-4.369-4.3s-.207-.056-.569-.149c.879,5.865,3.926,10.687,8.768,12.817,8.723,3.837,19.955-2.516,25.088-14.187s2.223-24.242-6.5-28.079" transform="translate(27.226 8.681)" fill="#00647b"/>
        <path id="Path_3176" data-name="Path 3176" d="M531.783,238.916c-12.069.231-14.77-3.322-10.558-5.4a12.786,12.786,0,0,1,4.168-.935c-7.555-.517-6.74-4.587-3.735-5.547,4.05-1.293,21.223-2.45,21.223-2.45s-11.646-4.137-11.736-11.752,3.155-6.8,6.23-2.106c1.5,2.3,5.818,3.99,9.838,5.123l-.392-38.877-186.033,1.9,1.333,130.36,186.033.107-.579-57.515a74.56,74.56,0,0,1-14.845-1.056s-9.44-2.66-.852-4.293a41.487,41.487,0,0,1,6.443-.679h-1c-12.439-.631-14.931-2.5-15.012-5.224-.048-1.609,5.052-1.787,10.376-1.573" transform="translate(29.46 14.451)" fill="none" stroke="#00647b" stroke-linecap="round" stroke-linejoin="round" stroke-width="2.594"/>
        <path id="Path_3177" data-name="Path 3177" d="M533.89,263.065H378.255v2.867H533.89a1.434,1.434,0,1,0,0-2.867" transform="translate(30.887 21.481)" fill="#8ab8c2"/>
        <path id="Path_3178" data-name="Path 3178" d="M533.89,248.74a1.434,1.434,0,1,0,0-2.867H378.255l.028,2.867Z" transform="translate(30.887 20.077)" fill="#8ab8c2"/>
        <path id="Path_3179" data-name="Path 3179" d="M518.165,228.68H378.376a1.434,1.434,0,1,0,0,2.867H518.165a1.434,1.434,0,1,0,0-2.867" transform="translate(30.779 18.673)" fill="#8ab8c2"/>
        <path id="Path_3180" data-name="Path 3180" d="M529.479,214.355h-151.1a1.434,1.434,0,1,1,0-2.867h151.1a1.434,1.434,0,1,1,0,2.867" transform="translate(30.779 17.269)" fill="#8ab8c2"/>
        <path id="Path_3181" data-name="Path 3181" d="M378.268,195.894v91.437H533.889" transform="translate(30.888 15.996)" fill="none" stroke="#00647b" stroke-linecap="round" stroke-linejoin="round" stroke-width="2.594"/>
        <line id="Line_118" data-name="Line 118" x2="12.815" transform="translate(425.815 308.732)" fill="#fff"/>
        <line id="Line_119" data-name="Line 119" x2="12.815" transform="translate(425.815 308.732)" fill="none" stroke="#73df81" stroke-linecap="round" stroke-linejoin="round" stroke-width="2.594"/>
        <line id="Line_120" data-name="Line 120" x2="12.815" transform="translate(463.342 308.732)" fill="#fff"/>
        <line id="Line_121" data-name="Line 121" x2="12.815" transform="translate(463.342 308.732)" fill="none" stroke="#73df81" stroke-linecap="round" stroke-linejoin="round" stroke-width="2.594"/>
        <line id="Line_122" data-name="Line 122" x2="12.815" transform="translate(500.123 308.732)" fill="#fff"/>
        <line id="Line_123" data-name="Line 123" x2="12.815" transform="translate(500.123 308.732)" fill="none" stroke="#73df81" stroke-linecap="round" stroke-linejoin="round" stroke-width="2.594"/>
        <line id="Line_124" data-name="Line 124" x2="12.815" transform="translate(536.991 308.732)" fill="#fff"/>
        <line id="Line_125" data-name="Line 125" x2="12.815" transform="translate(536.991 308.732)" fill="none" stroke="#73df81" stroke-linecap="round" stroke-linejoin="round" stroke-width="2.594"/>
        <path id="Path_3182" data-name="Path 3182" d="M372.44,216.148a1.434,1.434,0,0,1-1.434-1.434V212.49a1.434,1.434,0,1,1,2.869,0v2.224a1.434,1.434,0,0,1-1.434,1.434" transform="translate(30.295 17.234)" fill="#408b9c"/>
        <path id="Path_3183" data-name="Path 3183" d="M372.44,232.744a1.434,1.434,0,0,1-1.434-1.434v-2.225a1.434,1.434,0,1,1,2.869,0v2.225a1.434,1.434,0,0,1-1.434,1.434" transform="translate(30.295 18.589)" fill="#408b9c"/>
        <path id="Path_3184" data-name="Path 3184" d="M372.44,250.964a1.434,1.434,0,0,1-1.434-1.434v-2.224a1.434,1.434,0,1,1,2.869,0v2.224a1.434,1.434,0,0,1-1.434,1.434" transform="translate(30.295 20.077)" fill="#408b9c"/>
        <path id="Path_3185" data-name="Path 3185" d="M372.44,268.157a1.434,1.434,0,0,1-1.434-1.434V264.5a1.434,1.434,0,1,1,2.869,0v2.224a1.434,1.434,0,0,1-1.434,1.434" transform="translate(30.295 21.481)" fill="#408b9c"/>
        <rect id="Rectangle_464" data-name="Rectangle 464" width="6.638" height="71.223" transform="translate(414.631 230.684)" fill="#73df81"/>
        <rect id="Rectangle_465" data-name="Rectangle 465" width="6.638" height="71.223" transform="translate(424.559 230.684)" fill="#73df81"/>
        <rect id="Rectangle_466" data-name="Rectangle 466" width="6.638" height="82.922" transform="translate(434.487 218.984)" fill="#73df81"/>
        <rect id="Rectangle_467" data-name="Rectangle 467" width="6.638" height="59.311" transform="translate(444.414 242.595)" fill="#73df81"/>
        <rect id="Rectangle_468" data-name="Rectangle 468" width="6.638" height="48.64" transform="translate(454.343 253.266)" fill="#90e69c"/>
        <rect id="Rectangle_469" data-name="Rectangle 469" width="6.638" height="77.13" transform="translate(464.27 224.777)" fill="#90e69c"/>
        <rect id="Rectangle_470" data-name="Rectangle 470" width="6.638" height="90.016" transform="translate(474.198 211.89)" fill="#90e69c"/>
        <rect id="Rectangle_471" data-name="Rectangle 471" width="6.638" height="67.775" transform="translate(484.126 234.131)" fill="#90e69c"/>
        <rect id="Rectangle_472" data-name="Rectangle 472" width="6.638" height="69.193" transform="translate(494.054 232.713)" fill="#b2edba"/>
        <rect id="Rectangle_473" data-name="Rectangle 473" width="6.638" height="78.968" transform="translate(503.981 222.938)" fill="#b2edba"/>
        <rect id="Rectangle_474" data-name="Rectangle 474" width="6.638" height="50.848" transform="translate(513.91 251.059)" fill="#b2edba"/>
        <rect id="Rectangle_475" data-name="Rectangle 475" width="6.638" height="75.458" transform="translate(523.837 226.448)" fill="#b2edba"/>
        <rect id="Rectangle_476" data-name="Rectangle 476" width="6.638" height="77.547" transform="translate(533.764 224.359)" fill="#c7f2cd"/>
        <rect id="Rectangle_477" data-name="Rectangle 477" width="6.638" height="76.263" transform="translate(543.693 225.643)" fill="#c7f2cd"/>
        <rect id="Rectangle_478" data-name="Rectangle 478" width="6.638" height="57.662" transform="translate(553.62 244.244)" fill="#c7f2cd"/>
        <path id="Path_3186" data-name="Path 3186" d="M556.89,204.2c-6.73,0-12.626,4.413-15.906,11.027l5.327-2.026s15.877,1.079,13.285,18.091a16.919,16.919,0,0,1-9.037,13.818,39.454,39.454,0,0,1-3.591,1.721,16.059,16.059,0,0,0,9.922,3.541c10.3,0,18.652-10.336,18.652-23.087S567.191,204.2,556.89,204.2" transform="translate(44.174 16.674)" fill="#00647b"/>
        <path id="Path_3187" data-name="Path 3187" d="M515.347,230.359c-9.613.091-8.912-4.568-5.67-5.6,4.05-1.294,21.223-2.45,21.223-2.45s-11.646-4.137-11.736-11.752,3.155-6.8,6.23-2.106,17.919,6.878,17.919,6.878l5.732-2.181s15.877,1.081,13.285,18.092a16.919,16.919,0,0,1-9.037,13.818c-2.43,1.224-11.493,6.885-32.543,3.438,0,0-9.44-2.661-.853-4.294a41.851,41.851,0,0,1,6.519-.683" transform="translate(41.44 16.729)" fill="#fff"/>
        <path id="Path_3188" data-name="Path 3188" d="M515.347,230.359c-9.613.091-8.912-4.568-5.67-5.6,4.05-1.294,21.223-2.45,21.223-2.45s-11.646-4.137-11.736-11.752,3.155-6.8,6.23-2.106,17.919,6.878,17.919,6.878l5.732-2.181s15.877,1.081,13.285,18.092a16.919,16.919,0,0,1-9.037,13.818c-2.43,1.224-11.493,6.885-32.543,3.438,0,0-9.44-2.661-.853-4.294a41.851,41.851,0,0,1,6.519-.683" transform="translate(41.44 16.729)" fill="none" stroke="#00647b" stroke-linecap="round" stroke-linejoin="round" stroke-width="2.594"/>
        <path id="Path_3189" data-name="Path 3189" d="M530.261,228.612c-3.4.116-16.795-1.359-21.007.719s-1.512,5.632,10.557,5.4" transform="translate(41.431 18.635)" fill="#fff"/>
        <path id="Path_3190" data-name="Path 3190" d="M530.261,228.612c-3.4.116-16.795-1.359-21.007.719s-1.512,5.632,10.557,5.4" transform="translate(41.431 18.635)" fill="none" stroke="#00647b" stroke-linecap="round" stroke-linejoin="round" stroke-width="2.594"/>
        <path id="Path_3191" data-name="Path 3191" d="M532.308,235.082c-.486.273-22.294-2.505-22.2.817.081,2.721,2.574,4.594,15.013,5.223h10.205" transform="translate(41.653 19.128)" fill="#fff"/>
        <path id="Path_3192" data-name="Path 3192" d="M532.308,235.082c-.486.273-22.294-2.505-22.2.817.081,2.721,2.574,4.594,15.013,5.223h10.205" transform="translate(41.653 19.128)" fill="none" stroke="#00647b" stroke-linecap="round" stroke-linejoin="round" stroke-width="2.594"/>
        <path id="Path_3193" data-name="Path 3193" d="M298.991,204.778c9.133-3.59,6.1-6.82,2.512-6.362-4.487.57-21.309,6.237-21.309,6.237s8.9-7.538,5.117-13.287-6.443-3.907-6.962.79-14.13,11.432-14.13,11.432l-5.647,1.434s-11.759,9.511-.452,21.325a16.076,16.076,0,0,0,14.574,5.812c2.559-.374,12.266-1.114,30.412-11.712,0,0,7.57-5.588-1.377-3.547a51.659,51.659,0,0,0-6.509,1.968" transform="translate(20.676 15.333)" fill="none" stroke="#00647b" stroke-linecap="round" stroke-linejoin="round" stroke-width="2.594"/>
        <path id="Path_3194" data-name="Path 3194" d="M282.583,209.412c3.275-1.208,15.185-7.41,20.225-7.454s4.293,3.652-7.234,8.071" transform="translate(23.074 16.491)" fill="none" stroke="#00647b" stroke-linecap="round" stroke-linejoin="round" stroke-width="2.594"/>
        <path id="Path_3195" data-name="Path 3195" d="M283.875,215.1c.6.019,19.8-10.363,21.4-7.832,1.308,2.074-.1,4.427-11.536,9.633l-9.647,3.883" transform="translate(23.18 16.892)" fill="none" stroke="#00647b" stroke-linecap="round" stroke-linejoin="round" stroke-width="2.594"/>
        <path id="Path_3196" data-name="Path 3196" d="M108.409,259.475l4.136,1.129a17.819,17.819,0,0,1-3.976-1.995Z" transform="translate(8.852 21.117)" fill="#00647b"/>
        <path id="Path_3197" data-name="Path 3197" d="M286.771,231.757c0-19.207-2.161-37.21-35.406-34.066-1.046.18-2.006.387-2.9.622l-38.764,8.33-30.1-43.4a23.466,23.466,0,0,0-18.515-11.934l-9.99-.84.9-9.4s-1.391,3.381-12.385,5.446c-14.861,2.792-39.317-10.146-39.317-10.146v14.772c0,.169-18.4,1.117-26.851,6.393S61.4,173.1,55.43,187.569s-24.747,65.8-25.195,69.229-4.589,23.63,6.452,35.567c9.369,10.13,28.814,27.077,48.985,20.216l97.877-1.416c-5.692-13.715-7.917-31.242-8.566-48.3l-1.854-26.082a1.452,1.452,0,0,1,.055-.509c6.421-21.624,4.448-35.482,1.661-43.3-2.992-8.4-7.536-11.792-7.581-11.826a1.434,1.434,0,0,1,1.679-2.326c.21.151,5.194,3.813,8.514,12.934,2.986,8.211,5.151,22.69-1.448,45.08l1.629,22.921c1.32.6,2.688,1.18,4.121,1.719,89.3,21.486,96.566-3.051,96.566-3.051h0c5.164-6.38,8.45-15.957,8.45-26.67M128.577,262.542a2.608,2.608,0,0,1,.154.873c0,2.785-2.211,4.776-6.455,7.163a3.576,3.576,0,0,1-2.533.205l.045.012c-.652,2.407-4.586,3.5-4.586,3.5a4.335,4.335,0,0,1-2.11-.062c-3.6,2.328-7.547,2.341-11.443,1.061,3.476,5.687,3.4,8.376.42,7.6-2.89-.753-9.351-8.488-12.536-12.487l-.14-.057-2.413-3.26a69.152,69.152,0,0,1,12.993-22.938c.9.043,1.783.1,2.64.177-.785-2.819-3.429-7.749-12.148-12.754-13.581-6.147-23.842,3.525-24.272,3.94a1.434,1.434,0,0,1-2-2.059c.115-.111,11.13-10.575,25.63-5.242l2.491-34.77a1.434,1.434,0,1,1,2.86.2l-2.569,35.862c9.919,5.9,12.44,11.873,13.031,15.136,4.388.544,7.529,1.285,7.529,1.285s12.381.941,16.094,12.576c0,0,1.127,2.871-.684,4.034" transform="translate(2.377 11.135)" fill="#00647b"/>
        <path id="Path_3198" data-name="Path 3198" d="M113.237,246.564c-4.056-1.968-4.748,1.369-3.032,3.85l-.082.448a45.815,45.815,0,0,0,5.424,3.6,6.234,6.234,0,0,1,1.091-1.619c-1.381-1.732-.423-4.836-3.4-6.281" transform="translate(8.927 20.085)" fill="#00647b"/>
        <path id="Path_3199" data-name="Path 3199" d="M134.608,137.48l-.613,16.018-34.118-2.637V117.312" transform="translate(8.155 9.579)" fill="none" stroke="#00647b" stroke-linecap="round" stroke-linejoin="round" stroke-width="2.594"/>
        <path id="Path_3200" data-name="Path 3200" d="M147.276,72.665c-14.222-9.852-27.04-13.459-47.107,12.254l-2.738,16.93c-8.436-2.54-12.878,1.573-11.044,8.923,1.976,7.921,6.568,11.483,14.2,9.421h0c3.659,8.308,10.579,17.839,23.441,20.627,20.143,4.366,24.8-8.1,27.041-13S161.5,82.516,147.276,72.665Z" transform="translate(7.021 5.328)" fill="none" stroke="#00647b" stroke-linecap="round" stroke-linejoin="round" stroke-width="2.594"/>
        <path id="Path_3201" data-name="Path 3201" d="M136.74,100.77l1.739,15.158-5.662-.143" transform="translate(10.845 8.228)" fill="none" stroke="#00647b" stroke-linecap="round" stroke-linejoin="round" stroke-width="2.594"/>
        <path id="Path_3202" data-name="Path 3202" d="M145.519,100.652c0,1.444-.757,2.615-1.691,2.615s-1.692-1.171-1.692-2.615.757-2.615,1.692-2.615,1.691,1.171,1.691,2.615" transform="translate(11.606 8.005)" fill="#00647b"/>
        <path id="Path_3203" data-name="Path 3203" d="M130.47,100.387c0,1.444-.757,2.615-1.691,2.615s-1.692-1.171-1.692-2.615.757-2.615,1.692-2.615,1.691,1.171,1.691,2.615" transform="translate(10.377 7.984)" fill="#00647b"/>
        <path id="Path_3204" data-name="Path 3204" d="M141.384,86.675s4.689-1.218,5.861,2.615" transform="translate(11.545 7.062)" fill="none" stroke="#00647b" stroke-linecap="round" stroke-linejoin="round" stroke-width="2.594"/>
        <path id="Path_3205" data-name="Path 3205" d="M126.158,117.658s.8,5,5.4,4.191" transform="translate(10.301 9.607)" fill="none" stroke="#00647b" stroke-linecap="round" stroke-linejoin="round" stroke-width="2.594"/>
        <path id="Path_3206" data-name="Path 3206" d="M79.293,56.6c-9.038-17.689-23.6-19.234-40.359-15.9S12.789,66.6,12.2,68.693A62.037,62.037,0,0,0,34.543,134.55c2.23,1.707,4.466,3.433,6.6,5.106,11.824,9.261-14.369,17.162-14.369,17.162,50.181,4.026,39.237-46.194,38.171-50.644C81,100.059,87.7,73.06,79.293,56.6" transform="translate(0.812 3.209)" fill="#00647b"/>
        <path id="Path_3207" data-name="Path 3207" d="M102.4,89.378h0A7.961,7.961,0,0,1,92.095,93.9L63.03,82.573a7.961,7.961,0,0,1,5.783-14.834L97.878,79.07A7.961,7.961,0,0,1,102.4,89.378" transform="translate(4.733 5.487)" fill="#73df81"/>
        <path id="Path_3208" data-name="Path 3208" d="M162.083,91.052c-.177-12.309-3.135-23.1-10.57-30.226a14.269,14.269,0,0,0-4.178-3.3c-6.07-3.927-14.306-6.028-25.233-5.641a1.738,1.738,0,0,0-.666.183,45.455,45.455,0,0,0-5.1.755,18.9,18.9,0,0,0-2.724.642,52.824,52.824,0,0,0-8.778,3.223C80.333,67.234,70.686,86.26,81.652,112.5c5.656,13.533,12.989,17.886,20.079,17.9v-8.2c-.607-1.3-1.6-.8-1.6-.8-7.635,2.062-11.046-1.615-13.022-9.536-.954-3.826-.206-6.77,1.919-8.36.054-.041.107-.083.163-.122.085-.058.174-.114.264-.169.056-.035.112-.07.171-.1.094-.054.191-.1.29-.154l.172-.083c.106-.048.213-.1.323-.138.052-.021.107-.04.16-.059.12-.044.241-.088.367-.125l.114-.031a8.818,8.818,0,0,1,2.12-.322l.055,0c.18-.005.362-.005.548,0l.111,0c.182.005.368.015.557.028l.119.01c.194.015.39.035.589.059l.089.012a18.321,18.321,0,0,1,2.912.638h0c.653.2.176.5.876.781l1.762-.12c.608-.019,1.232-.062,1.882-.14,15.473-1.86,39.5-12.929,48.066-27.15,6.042,7.325,6.7,21.764,5.591,33.928a34.3,34.3,0,0,0,5.754-19.191m-28.321-4.284a1.431,1.431,0,0,1-1.63,1.206,6.28,6.28,0,0,0-5.948,2.287,1.434,1.434,0,1,1-2.354-1.639,9.159,9.159,0,0,1,8.726-3.484,1.434,1.434,0,0,1,1.206,1.63" transform="translate(6.301 4.233)" fill="#00647b"/>
        <path id="Path_3209" data-name="Path 3209" d="M124.572,254.118c1.287-1.289.32-3.747.32-3.747-3.713-11.635-16.094-12.576-16.094-12.576a81.37,81.37,0,0,0-13.2-1.779A69.143,69.143,0,0,0,82.61,258.951l2.413,3.26" transform="translate(6.746 19.272)" fill="none" stroke="#00647b" stroke-linecap="round" stroke-linejoin="round" stroke-width="2.594"/>
        <path id="Path_3210" data-name="Path 3210" d="M110.205,250.415c-1.717-2.481-1.024-5.818,3.032-3.85,2.759,1.338,2.137,4.1,3.129,5.88" transform="translate(8.927 20.085)" fill="none" stroke="#00647b" stroke-linecap="round" stroke-linejoin="round" stroke-width="2.594"/>
        <g id="Group_589" data-name="Group 589" transform="translate(107.389 218.532)" opacity="0.5">
          <g id="Group_588" data-name="Group 588">
            <g id="Group_587" data-name="Group 587" clip-path="url(#clip-path-3)">
              <path id="Path_3211" data-name="Path 3211" d="M329.961,202.035c-59.685,47.15-96.052,17.56-123.805,21.738s-31.97,17.952-57.038,27.8c-7.462,2.932-17.086,4.251-26.119,4.657-2.392,9-10.219,13.613-15.141,12.807L99.7,273.954,99.282,294.4l230.679,1.5Z" transform="translate(-99.282 -202.035)" fill="#fff"/>
            </g>
          </g>
        </g>
        <line id="Line_126" data-name="Line 126" x1="242.146" transform="translate(107.389 310.893)" fill="none" stroke="#73df81" stroke-linecap="round" stroke-linejoin="round" stroke-width="2.594"/>
        <line id="Line_127" data-name="Line 127" y2="2.806" transform="translate(141.184 272.182)" fill="none" stroke="#73df81" stroke-linecap="round" stroke-linejoin="round" stroke-width="2.594"/>
        <line id="Line_128" data-name="Line 128" y2="23.169" transform="translate(141.184 281.608)" fill="none" stroke="#73df81" stroke-linecap="round" stroke-linejoin="round" stroke-width="2.594" stroke-dasharray="6.12 6.12"/>
        <line id="Line_129" data-name="Line 129" y2="2.806" transform="translate(141.184 308.088)" fill="none" stroke="#73df81" stroke-linecap="round" stroke-linejoin="round" stroke-width="2.594"/>
        <line id="Line_130" data-name="Line 130" y2="2.806" transform="translate(214.264 240.909)" fill="none" stroke="#73df81" stroke-linecap="round" stroke-linejoin="round" stroke-width="2.594"/>
        <line id="Line_131" data-name="Line 131" y2="55.595" transform="translate(214.264 249.567)" fill="none" stroke="#73df81" stroke-linecap="round" stroke-linejoin="round" stroke-width="2.594" stroke-dasharray="5.41 5.41"/>
        <line id="Line_132" data-name="Line 132" y2="2.806" transform="translate(214.264 308.088)" fill="none" stroke="#73df81" stroke-linecap="round" stroke-linejoin="round" stroke-width="2.594"/>
        <line id="Line_133" data-name="Line 133" y2="2.806" transform="translate(285.768 243.965)" fill="none" stroke="#73df81" stroke-linecap="round" stroke-linejoin="round" stroke-width="2.594"/>
        <line id="Line_134" data-name="Line 134" y2="52.956" transform="translate(285.768 252.345)" fill="none" stroke="#73df81" stroke-linecap="round" stroke-linejoin="round" stroke-width="2.594" stroke-dasharray="5.153 5.153"/>
        <line id="Line_135" data-name="Line 135" y2="2.806" transform="translate(285.768 308.088)" fill="none" stroke="#73df81" stroke-linecap="round" stroke-linejoin="round" stroke-width="2.594"/>
        <path id="Path_3212" data-name="Path 3212" d="M121.443,256.371a72.3,72.3,0,0,0,25.867-4.8c25.067-9.847,29.285-23.622,57.038-27.8s64.12,25.412,123.805-21.738" transform="translate(9.916 16.497)" fill="none" stroke="#73df81" stroke-linecap="round" stroke-linejoin="round" stroke-width="2.594"/>
        <path id="Path_3213" data-name="Path 3213" d="M111.757,251.743c1.706.2,2.747.358,4.684.459" transform="translate(9.126 20.556)" fill="none" stroke="#73df81" stroke-linecap="round" stroke-linejoin="round" stroke-width="2.594"/>
        <path id="Path_3214" data-name="Path 3214" d="M267.648,225.79a3.21,3.21,0,1,1-3.209-3.209,3.209,3.209,0,0,1,3.209,3.209" transform="translate(21.331 18.175)" fill="#73df81"/>
        <path id="Path_3215" data-name="Path 3215" d="M201.541,222.7a3.21,3.21,0,1,1-3.209-3.209,3.209,3.209,0,0,1,3.209,3.209" transform="translate(15.933 17.922)" fill="#73df81"/>
        <path id="Path_3216" data-name="Path 3216" d="M133.978,251.877a3.21,3.21,0,1,1-3.209-3.209,3.209,3.209,0,0,1,3.209,3.209" transform="translate(10.416 20.305)" fill="#73df81"/>
        <path id="Path_3217" data-name="Path 3217" d="M100.975,252.9s11.186,11.009,15.431,8.622,6.455-4.377,6.455-7.163-4.422-4.6-6.632,0c0,0-7.633-4.244-8.429-7.074" transform="translate(8.245 20.192)" fill="none" stroke="#00647b" stroke-linecap="round" stroke-linejoin="round" stroke-width="2.594"/>
        <path id="Path_3218" data-name="Path 3218" d="M95.13,255.786s10.081,9.992,14.679,8.755c0,0,3.934-1.09,4.587-3.5" transform="translate(7.768 20.886)" fill="none" stroke="#00647b" stroke-linecap="round" stroke-linejoin="round" stroke-width="2.594"/>
        <path id="Path_3219" data-name="Path 3219" d="M83.259,258.1s10.473,13.837,14.387,14.855,2.827-3.949-4.793-13.865" transform="translate(6.799 21.075)" fill="none" stroke="#00647b" stroke-linecap="round" stroke-linejoin="round" stroke-width="2.594"/>
        <line id="Line_136" data-name="Line 136" x2="651.188" transform="translate(1.637 324.004)" fill="none" stroke="#00647b" stroke-linecap="round" stroke-linejoin="round" stroke-width="3.026"/>
      </g>
    </g>
  </g>
</svg>
