<svg id="Group_576" data-name="Group 576" xmlns="http://www.w3.org/2000/svg" xmlns:xlink="http://www.w3.org/1999/xlink" width="611.064" height="353.722" viewBox="0 0 611.064 353.722">
  <defs>
    <clipPath id="clip-path">
      <rect id="Rectangle_449" data-name="Rectangle 449" width="611.064" height="353.722" fill="none"/>
    </clipPath>
  </defs>
  <g id="Group_575" data-name="Group 575" clip-path="url(#clip-path)">
    <path id="Path_2942" data-name="Path 2942" d="M222.915,218.775c-4.792-2.562-8.855-1.329-13.372,3.425,2.063-11.544,1.974-25.543-7.158-27.9-9.427-2.434-14.767,3.434-20.291,17.618.21-12.17-2.2-27.867-12.277-28.506-11.334-.719-15.08,8.6-17.893,29.279-3.526-11.56-13.255-31.815-24.689-27.8-11.206,3.934-10.486,14.739-4.258,36.768-6.141-9.511-18.42-23.646-26.661-18.272-7.825,5.1-5.683,13.416,3.012,28.866-5.723-2.479-11.68-2.737-16.436,1.964-10.692,10.566-5.55,20.57,9.287,39.135s121.412-14.275,126.469-22.675,12.978-27.244,4.267-31.9" transform="translate(6.174 14.661)" fill="#fff"/>
    <path id="Path_2943" data-name="Path 2943" d="M222.915,218.775c-4.792-2.562-8.855-1.329-13.372,3.425,2.063-11.544,1.974-25.543-7.158-27.9-9.427-2.434-14.767,3.434-20.291,17.618.21-12.17-2.2-27.867-12.277-28.506-11.334-.719-15.08,8.6-17.893,29.279-3.526-11.56-13.255-31.815-24.689-27.8-11.206,3.934-10.486,14.739-4.258,36.768-6.141-9.511-18.42-23.646-26.661-18.272-7.825,5.1-5.683,13.416,3.012,28.866-5.723-2.479-11.68-2.737-16.436,1.964-10.692,10.566-5.55,20.57,9.287,39.135s121.412-14.275,126.469-22.675S231.626,223.431,222.915,218.775Z" transform="translate(6.174 14.661)" fill="none" stroke="#73df81" stroke-linecap="round" stroke-linejoin="round" stroke-width="3.445"/>
    <path id="Path_2944" data-name="Path 2944" d="M224.387,245.385l.09-.275-143.316.444.09.275a14.815,14.815,0,0,0-11.8,16.809L80.174,331.78l145.288-.444,10.728-69.14a14.816,14.816,0,0,0-11.8-16.811" transform="translate(5.538 19.598)" fill="#a8ebb1"/>
    <path id="Path_2945" data-name="Path 2945" d="M455.789,226.257a57.659,57.659,0,0,0-6.654.387c-11.9-16.439-25.551-30.412-39.9-39.249-37.366-23.012-88.683-16.422-136.573,1.294-32.917,12.178-74.643,51.4-101.4,79.2-34.892,2.619-61.678,26.357-60.074,53.515a39.862,39.862,0,0,0,4.786,16.651l117.048.775c.2-.315.4-.635.592-.954l173.6-.6c.191.259.382.521.577.776l96.118-.165a71.955,71.955,0,0,0,14.24-43.4c0-37.685-27.921-68.235-62.362-68.235" transform="translate(8.885 13.802)" fill="#14a0b1"/>
    <path id="Path_2946" data-name="Path 2946" d="M402.1,188.352c-44.17,27.378-83.869,27.978-109.562,23.572-23.819-4.083-40.982-13.273-46.6-16.845q-1.427.8-2.866,1.653c4.581,3.153,22.515,13.506,48.421,18.046A147.927,147.927,0,0,0,317.048,217a149.5,149.5,0,0,0,26.109-2.307c20.952-3.714,41.667-11.957,61.6-24.486q-1.32-.956-2.65-1.858" transform="translate(19.435 15.06)" fill="#fff"/>
    <path id="Path_2947" data-name="Path 2947" d="M386.291,233.443c7.023-9.862,15.712-15.41,25.829-16.487a32.843,32.843,0,0,1,10.944.683q-1.4-1.8-2.833-3.56a36.086,36.086,0,0,0-8.278-.111c-7.609.778-18.661,4.486-28.1,17.74a1.494,1.494,0,1,0,2.434,1.734" transform="translate(30.669 17.093)" fill="#fff"/>
    <path id="Path_2948" data-name="Path 2948" d="M386.7,267.948h.029a1.5,1.5,0,0,0,1.495-1.464c.085-4.4,1.86-14.339,7.964-23.706,7.1-10.888,17.529-17.595,31.006-19.973q-.978-1.351-1.974-2.679c-13.468,2.74-24.335,9.968-31.536,21.02-6.053,9.289-8.334,19.424-8.447,25.278a1.494,1.494,0,0,0,1.464,1.524" transform="translate(30.801 17.6)" fill="#fff"/>
    <path id="Path_2949" data-name="Path 2949" d="M192.706,250.775a71.817,71.817,0,0,0-16.875,1.291q-2.258,2.265-4.417,4.469c5.526-3.034,37.012-6.814,50.014,7.946a1.494,1.494,0,0,0,2.243-1.975c-8.365-9.5-22.991-11.426-30.964-11.73" transform="translate(13.705 20.046)" fill="#fff"/>
    <path id="Path_2950" data-name="Path 2950" d="M165.9,260.922l.089-.01-.129.011c.014,0,.027,0,.04,0" transform="translate(13.261 20.861)" fill="#fff"/>
    <path id="Path_2951" data-name="Path 2951" d="M218.7,271.6c-17.6-13.285-39.5-14.076-48.786-13.72q-1.575,1.618-3.09,3.192c5.318-.432,30.811-1.624,50.075,12.913a1.494,1.494,0,1,0,1.8-2.386" transform="translate(13.338 20.614)" fill="#fff"/>
    <path id="Path_2952" data-name="Path 2952" d="M144.52,328.37s16.325-48.322,62.311-39.552,108.889,27.62,108.889,27.62v12.114Z" transform="translate(11.555 23.007)" fill="#fff"/>
    <path id="Path_2953" data-name="Path 2953" d="M144.52,328.37s16.325-48.322,62.311-39.552,108.889,27.62,108.889,27.62v12.114Z" transform="translate(11.555 23.007)" fill="none" stroke="#00647b" stroke-linecap="round" stroke-linejoin="round" stroke-width="3.445"/>
    <path id="Path_2954" data-name="Path 2954" d="M481.013,163.441a8.223,8.223,0,0,1-4.16-6.1c-.486-4.269,2.373-22.687,6.994-25.256s25.69-14,29.58-13.743,5.51,34.081-32.414,45.1" transform="translate(38.122 9.461)" fill="#fff"/>
    <path id="Path_2955" data-name="Path 2955" d="M482.772,135.312c7.873-27.557,14.319-33.712,18.029-31.029,3.365,2.433-3.506,19.987-5.493,29.1" transform="translate(38.6 8.292)" fill="#fff"/>
    <path id="Path_2956" data-name="Path 2956" d="M482.772,135.312c7.873-27.557,14.319-33.712,18.029-31.029,3.365,2.433-3.506,19.987-5.493,29.1" transform="translate(38.6 8.292)" fill="none" stroke="#00647b" stroke-linecap="round" stroke-linejoin="round" stroke-width="3.445"/>
    <path id="Path_2957" data-name="Path 2957" d="M521.964,127.726c3.945-6.411,10.459-6.09,7.059,4.832-3.315,10.645-5.78,24.53-12.006,30.8s-8.465,9.08-8.465,9.08-12.441,46.483-19.522,85.132c-10.238,55.875-29.535,66.639-47.573,60.237-18.012-6.393-21.369-31.665,3.26-80.773s37.625-77.726,37.625-77.726" transform="translate(34.148 9.874)" fill="#fff"/>
    <path id="Path_2958" data-name="Path 2958" d="M521.964,127.726c3.945-6.411,10.459-6.09,7.059,4.832-3.315,10.645-5.78,24.53-12.006,30.8s-8.465,9.08-8.465,9.08-12.441,46.483-19.522,85.132c-10.238,55.875-29.535,66.639-47.573,60.237-18.012-6.393-21.369-31.665,3.26-80.773s37.625-77.726,37.625-77.726" transform="translate(34.148 9.874)" fill="none" stroke="#00647b" stroke-linecap="round" stroke-linejoin="round" stroke-width="3.445"/>
    <path id="Path_2959" data-name="Path 2959" d="M479.6,160.228c-3.57-2.419-3.144-16.474-7.153-22.6-5-7.631-9.856-15.543-.634-14.355,7.9,1.018,10.42,7.968,12.255,10.482" transform="translate(37.307 9.847)" fill="#fff"/>
    <path id="Path_2960" data-name="Path 2960" d="M479.6,160.228c-3.57-2.419-3.144-16.474-7.153-22.6-5-7.631-9.856-15.543-.634-14.355,7.9,1.018,10.42,7.968,12.255,10.482" transform="translate(37.307 9.847)" fill="none" stroke="#00647b" stroke-linecap="round" stroke-linejoin="round" stroke-width="3.445"/>
    <path id="Path_2961" data-name="Path 2961" d="M510.783,140.574s7.006-17.063,9.358-24.957c2.573-8.639-6.5-9.855-10.844,2.517" transform="translate(40.72 8.714)" fill="#fff"/>
    <path id="Path_2962" data-name="Path 2962" d="M510.783,140.574s7.006-17.063,9.358-24.957c2.573-8.639-6.5-9.855-10.844,2.517" transform="translate(40.72 8.714)" fill="none" stroke="#00647b" stroke-linecap="round" stroke-linejoin="round" stroke-width="3.445"/>
    <path id="Path_2963" data-name="Path 2963" d="M503.753,136.63s13.787-31.245,7.619-34.026c-5.624-2.535-9.911,8.865-16.991,30.894" transform="translate(39.528 8.176)" fill="#fff"/>
    <path id="Path_2964" data-name="Path 2964" d="M503.753,136.63s13.787-31.245,7.619-34.026c-5.624-2.535-9.911,8.865-16.991,30.894" transform="translate(39.528 8.176)" fill="none" stroke="#00647b" stroke-linecap="round" stroke-linejoin="round" stroke-width="3.445"/>
    <path id="Path_2965" data-name="Path 2965" d="M294.2,155.991l1.933,35.237s-3.272,19.012,23.138,15.487c26.3-3.51,23.075-19.085,23.075-19.085l-8.144-43.764Z" transform="translate(23.523 11.503)" fill="#fff"/>
    <path id="Path_2966" data-name="Path 2966" d="M294.2,155.991l1.933,35.237s-3.272,19.012,23.138,15.487c26.3-3.51,23.075-19.085,23.075-19.085l-8.144-43.764Z" transform="translate(23.523 11.503)" fill="none" stroke="#00647b" stroke-linecap="round" stroke-linejoin="round" stroke-width="3.445"/>
    <path id="Path_2967" data-name="Path 2967" d="M340.607,102.865s20.431-7.664,21.223,13.611-21.223,15.759-21.223,15.759" transform="translate(27.233 8.117)" fill="#fff"/>
    <path id="Path_2968" data-name="Path 2968" d="M340.607,102.865s20.431-7.664,21.223,13.611-21.223,15.759-21.223,15.759" transform="translate(27.233 8.117)" fill="none" stroke="#00647b" stroke-linecap="round" stroke-linejoin="round" stroke-width="3.445"/>
    <path id="Path_2969" data-name="Path 2969" d="M308.119,172.462h0a40.074,40.074,0,0,1-40.074-40.073V97.44A25.653,25.653,0,0,1,293.7,71.787h35.064a19.429,19.429,0,0,1,19.429,19.429V132.39a40.073,40.073,0,0,1-40.073,40.073" transform="translate(21.431 5.74)" fill="#fff"/>
    <path id="Path_2970" data-name="Path 2970" d="M308.119,172.462h0a40.074,40.074,0,0,1-40.074-40.073V97.44A25.653,25.653,0,0,1,293.7,71.787h35.064a19.429,19.429,0,0,1,19.429,19.429V132.39A40.073,40.073,0,0,1,308.119,172.462Z" transform="translate(21.431 5.74)" fill="none" stroke="#00647b" stroke-linecap="round" stroke-linejoin="round" stroke-width="3.445"/>
    <path id="Path_2971" data-name="Path 2971" d="M354.334,147.872a137.563,137.563,0,0,0-2.463-25.991c.016-.17.026-.339.026-.511a5.707,5.707,0,0,0-5.679-5.681v5.681l.151,5.677a5.629,5.629,0,0,0,3.191-1.1c1.837,11.465,5.488,45.623-9.85,74.668-2.813,5.327-5.453,10.248-8,15.006-14.461,26.961-24.014,44.774-23.789,60.68a1.5,1.5,0,0,0,1.495,1.474h.022a1.5,1.5,0,0,0,1.473-1.516c-.214-15.133,9.194-32.674,23.435-59.226,2.554-4.763,5.195-9.687,8.012-15.022,10.034-19,12.054-39.928,11.982-54.138" transform="translate(24.619 9.25)" fill="#73df81"/>
    <path id="Path_2972" data-name="Path 2972" d="M264.661,127.557a5.671,5.671,0,0,0,2.279.7v-11.3a5.679,5.679,0,0,0-5.1,4.819,1.5,1.5,0,0,0-.257.834c-.007,2.273.016,55.948,15.929,80.165,16.3,24.811,21.341,38.941,22.461,63a1.5,1.5,0,0,0,1.492,1.426l.07,0a1.493,1.493,0,0,0,1.423-1.563c-1.15-24.689-6.3-39.156-22.949-64.5-12.677-19.292-14.944-59.557-15.349-73.575" transform="translate(20.915 9.351)" fill="#73df81"/>
    <path id="Path_2973" data-name="Path 2973" d="M293.8,105.643l.528,32.307s2.379,3.436,6.211-3.567" transform="translate(23.491 8.447)" fill="none" stroke="#00647b" stroke-linecap="round" stroke-linejoin="round" stroke-width="3.445"/>
    <path id="Path_2974" data-name="Path 2974" d="M293.8,142.038c2.907,3.4,9.745,2.842,16.518-1.584,0,0,2.644,8.654-10.5,9.976" transform="translate(23.491 11.23)" fill="none" stroke="#00647b" stroke-linecap="round" stroke-linejoin="round" stroke-width="3.445"/>
    <path id="Path_2975" data-name="Path 2975" d="M305.58,96.235c.4-.1,4.658-6.244,11.2-.991" transform="translate(24.432 7.446)" fill="none" stroke="#00647b" stroke-linecap="round" stroke-linejoin="round" stroke-width="3.445"/>
    <path id="Path_2976" data-name="Path 2976" d="M318.611,114.735c0,2.117-1.109,3.833-2.477,3.833s-2.479-1.716-2.479-3.833,1.11-3.833,2.479-3.833,2.477,1.716,2.477,3.833" transform="translate(25.078 8.867)" fill="#00647b"/>
    <path id="Path_2977" data-name="Path 2977" d="M285.073,115.653c0,2.117-1.109,3.833-2.477,3.833s-2.478-1.716-2.478-3.833,1.11-3.833,2.478-3.833,2.477,1.716,2.477,3.833" transform="translate(22.397 8.94)" fill="#00647b"/>
    <path id="Path_2978" data-name="Path 2978" d="M275.08,96c.4-.081,5.794-7.477,11.233-.485" transform="translate(21.994 7.397)" fill="none" stroke="#00647b" stroke-linecap="round" stroke-linejoin="round" stroke-width="3.445"/>
    <path id="Path_2979" data-name="Path 2979" d="M318.23,63.72c-9.7.126-17.067.617-21.479,1.42-35.655,8.113-29.889,34.536-29.889,34.536S284.3,103,298.5,81.986A127.375,127.375,0,0,0,346.8,104.3c.462-.112.972-.255,1.517-.413v1.459a23.7,23.7,0,0,1,7.289-.762c-.315-10.42-2.178-23.546-10.763-32.02-6.1-6.021-15.057-9-26.61-8.846" transform="translate(21.309 5.094)" fill="#00647b"/>
    <path id="Path_2980" data-name="Path 2980" d="M354.789,102.157c-1.134-13.144-4.273-39.526-37.2-39.832a169.82,169.82,0,0,0-22.121,1.225" transform="translate(23.624 4.983)" fill="none" stroke="#fff" stroke-linecap="round" stroke-linejoin="round" stroke-width="3.445"/>
    <path id="Path_2981" data-name="Path 2981" d="M409.633,47.125c-12.3-35.162-47.19-54.949-77.94-44.2-25.276,8.838-39.877,35.562-37.447,64.324,4.632-.819,11.928-1.3,21.749-1.427,12.388-.156,22.06,3.1,28.749,9.708,9.484,9.361,11.388,23.589,11.667,34.637,4.581,1.244,8.8,4.985,9.148,14.423.036.956-.8,8.266-.6,8.243a15.328,15.328,0,0,0,2.264,8.184c3.427,5.53,10.419,8.954,20.783,10.174a1.644,1.644,0,0,0,.177.011,1.495,1.495,0,0,0,.173-2.98c-9.39-1.106-15.638-4.049-18.57-8.745a12.173,12.173,0,0,1-1.785-5.55,17.742,17.742,0,0,0,14.006,6.213,27.087,27.087,0,0,0,5.519-.6,1.495,1.495,0,1,0-.609-2.927c-9.061,1.886-14.124-1.569-16.732-4.648a52.121,52.121,0,0,0,6.031-1.708c30.751-10.752,45.711-47.973,33.416-83.135" transform="translate(23.505 0)" fill="#00647b"/>
    <circle id="Ellipse_1029" data-name="Ellipse 1029" cx="18.236" cy="18.236" r="18.236" transform="translate(325.156 106.357)" fill="none" stroke="#00647b" stroke-linecap="round" stroke-linejoin="round" stroke-width="3.445"/>
    <line id="Line_55" data-name="Line 55" x2="11.894" transform="translate(312.866 124.097)" fill="none" stroke="#00647b" stroke-linecap="round" stroke-linejoin="round" stroke-width="3.445"/>
    <line id="Line_56" data-name="Line 56" y1="5.812" x2="10.289" transform="translate(359.334 109.925)" fill="none" stroke="#00647b" stroke-linecap="round" stroke-linejoin="round" stroke-width="3.445"/>
    <circle id="Ellipse_1030" data-name="Ellipse 1030" cx="18.236" cy="18.236" r="18.236" transform="translate(275.799 106.357)" fill="none" stroke="#00647b" stroke-linecap="round" stroke-linejoin="round" stroke-width="3.445"/>
    <path id="Path_2982" data-name="Path 2982" d="M401.637,314.393H391.276l-5.09-75.36a10.412,10.412,0,0,0-10.235-9.587H231.579a8.847,8.847,0,0,0-8.94,9.587l5.635,83.431a10.412,10.412,0,0,0,10.235,9.587l163.127-.208a5.4,5.4,0,0,0,5.4-5.4v-6.645a5.4,5.4,0,0,0-5.4-5.4" transform="translate(17.799 18.345)" fill="#73df81"/>
    <line id="Line_57" data-name="Line 57" x2="607.344" transform="translate(1.86 351.861)" fill="none" stroke="#00647b" stroke-linecap="round" stroke-linejoin="round" stroke-width="3.445"/>
    <path id="Path_2983" data-name="Path 2983" d="M307.275,296.19l-.5.188a15.352,15.352,0,1,1,3.962-26.956l3.16-5.571a21.791,21.791,0,1,0-4.022,38.188l9.944,6.671.387.257-5.547-9.637-3.219-5.6a15.41,15.41,0,0,1-4.17,2.461" transform="translate(22.375 20.794)" fill="#fff"/>
    <path id="Path_2984" data-name="Path 2984" d="M321.123,281.576a21.728,21.728,0,0,0-8.751-17.471l-3.224,5.586a15.354,15.354,0,0,1,2.071,21.613,15.576,15.576,0,0,1-1.344,1.431l3.249,5.645a21.689,21.689,0,0,0,8-16.8" transform="translate(24.718 21.116)" fill="#fff"/>
  </g>
</svg>
